<svg width="30" height="30" viewBox="0 0 30 30" fill="none" xmlns="http://www.w3.org/2000/svg">
<g clip-path="url(#clip0_2401_88)">
<path d="M29.5357 7.82626C28.5451 5.14006 26.1738 3.38253 23.3479 3.23868C23.3367 3.23839 23.3262 3.23804 23.3154 3.23804H22.9006C19.333 3.23804 16.2684 5.43485 14.9888 8.54661C13.7091 5.43485 10.6446 3.23804 7.07692 3.23804H6.66219C6.65135 3.23804 6.64051 3.23833 6.62967 3.23868C3.81012 3.38224 1.44613 5.14106 0.460988 7.82913C-0.55609 10.6043 0.137196 13.5707 2.26797 15.5697L13.4773 26.1719C13.9147 26.5656 14.4679 26.7621 15.0169 26.7621C15.5714 26.7621 16.1213 26.5618 16.5431 26.162L18.2473 24.5538C18.6751 24.126 18.9173 23.562 18.9288 22.9663C18.9403 22.3573 18.7099 21.7846 18.2793 21.3543C18.0301 21.1051 17.6262 21.1051 17.377 21.3543C17.1279 21.6034 17.1279 22.0073 17.377 22.2565C17.7589 22.6387 17.7452 23.2512 17.3585 23.6382L15.6667 25.2343C15.3046 25.5766 14.7176 25.5715 14.3424 25.234L3.14273 14.6404C1.38971 12.9958 0.821518 10.5543 1.65924 8.26812C2.46321 6.07388 4.38563 4.63633 6.67877 4.51381H7.07692C11.0877 4.51381 14.3507 7.7768 14.3507 11.7876C14.3507 12.1398 14.6365 12.4256 14.9887 12.4256C15.3409 12.4256 15.6268 12.1398 15.6268 11.7876C15.6268 7.7768 18.8897 4.51381 22.9005 4.51381H23.2987C25.5991 4.63697 27.5293 6.07417 28.3383 8.26776C29.1783 10.5456 28.6136 12.9881 26.8519 14.6546L23.2789 18.2277C22.8498 18.6568 22.6133 19.219 22.6133 19.8114C22.6133 20.4038 22.8497 20.9659 23.2789 21.395C23.528 21.6441 23.9319 21.6441 24.1811 21.395C24.4302 21.1458 24.4302 20.7419 24.1811 20.4927C23.9929 20.3045 23.8895 20.0627 23.8895 19.8113C23.8895 19.5599 23.9929 19.3181 24.1811 19.1298L27.7414 15.5692C29.8682 13.5582 30.5554 10.5913 29.5357 7.82626Z" fill="#33485D"/>
</g>
<defs>
<clipPath id="clip0_2401_88">
<rect width="30" height="30" fill="white"/>
</clipPath>
</defs>
</svg>
